<svg width="150" height="140" viewBox="0 0 150 140" fill="none" xmlns="http://www.w3.org/2000/svg">
<path d="M0.0105551 99.7954C0.021189 99.8504 0.0379579 99.904 0.0605478 99.9553C0.0705463 99.9853 0.0805449 100.025 0.0905434 100.055L11.4989 119.812L11.5289 119.842C11.5489 119.872 11.5689 119.902 11.5989 119.942C11.6375 119.984 11.6811 120.021 11.7288 120.052C11.7588 120.072 11.7788 120.102 11.8088 120.122C11.8206 120.13 11.8347 120.134 11.8488 120.132C11.962 120.196 12.0891 120.23 12.2188 120.232H57.3521L68.5205 139.57L68.5505 139.6C68.5705 139.63 68.5905 139.66 68.6205 139.7C68.6591 139.741 68.7028 139.778 68.7505 139.809C68.7805 139.829 68.8005 139.859 68.8305 139.879C68.8422 139.887 68.8564 139.891 68.8704 139.889C68.9836 139.953 69.1107 139.987 69.2404 139.989H137.68C137.813 139.987 137.944 139.953 138.06 139.889L138.15 139.829C138.235 139.773 138.31 139.702 138.37 139.62C138.38 139.6 138.41 139.59 138.42 139.57L149.829 119.812C149.839 119.792 149.839 119.782 149.849 119.762C149.866 119.731 149.88 119.697 149.889 119.662C149.899 119.622 149.909 119.592 149.919 119.552C149.927 119.516 149.93 119.479 149.929 119.442C149.929 119.422 149.939 119.412 149.939 119.392C149.939 119.372 149.929 119.362 149.929 119.342C149.929 119.302 149.919 119.273 149.919 119.233C149.919 119.193 149.899 119.163 149.889 119.123C149.877 119.089 149.864 119.055 149.849 119.023C149.839 119.003 149.839 118.993 149.829 118.973L127.262 79.8883L138.42 60.5511C138.43 60.5311 138.43 60.5211 138.44 60.5011C138.458 60.4697 138.471 60.4361 138.48 60.4011C138.49 60.3611 138.5 60.3311 138.51 60.2912C138.518 60.2551 138.522 60.2181 138.52 60.1812C138.52 60.1612 138.53 60.1512 138.53 60.1312C138.53 60.1112 138.52 60.1012 138.52 60.0812C138.52 60.0412 138.51 60.0112 138.51 59.9712C138.51 59.9312 138.49 59.9012 138.48 59.8612C138.469 59.8272 138.455 59.7938 138.44 59.7612C138.43 59.7412 138.43 59.7312 138.42 59.7112L104.215 0.429937C104.195 0.399941 104.165 0.379944 104.145 0.349949C104.111 0.304574 104.074 0.261177 104.035 0.219968C103.994 0.186635 103.951 0.156548 103.905 0.129981C103.862 0.100746 103.815 0.0772232 103.765 0.0599911C103.707 0.0408616 103.646 0.0274673 103.585 0.019997C103.555 0.019997 103.525 0 103.485 0H80.6687C80.6487 0 80.6387 0.00999852 80.6187 0.00999852C80.5787 0.00999852 80.5487 0.019997 80.5087 0.019997L80.3888 0.0499926C80.3588 0.0599912 80.3188 0.0799883 80.2888 0.0899868C80.2588 0.0999854 80.2588 0.0999853 80.2388 0.109984C80.2274 0.122334 80.2138 0.1325 80.1988 0.139979C80.1664 0.160129 80.1363 0.183585 80.1088 0.209969C80.0797 0.234053 80.0529 0.260835 80.0288 0.289957C80.0088 0.319953 79.9788 0.349949 79.9588 0.379944C79.9465 0.391338 79.9363 0.404892 79.9288 0.419938L57.3621 39.5142H35.0454C35.0254 39.5142 35.0154 39.5242 34.9954 39.5242C34.9554 39.5242 34.9254 39.5342 34.8854 39.5342C34.8454 39.5342 34.8054 39.5542 34.7755 39.5642C34.7415 39.5758 34.7081 39.5891 34.6755 39.6042C34.6555 39.6142 34.6455 39.6142 34.6255 39.6242C34.6055 39.6342 34.6055 39.6442 34.5855 39.6542C34.5531 39.6743 34.523 39.6978 34.4955 39.7242C34.4664 39.7483 34.4396 39.775 34.4155 39.8042C34.3955 39.8342 34.3655 39.8641 34.3455 39.8941C34.3332 39.9055 34.323 39.9191 34.3155 39.9341L0.100542 99.2154C0.0860027 99.2472 0.0759095 99.2809 0.0705463 99.3154C0.0493574 99.3672 0.0326324 99.4208 0.0205537 99.4754C0.00468258 99.5272 -0.00208351 99.5813 0.0005566 99.6354C-0.00109886 99.6889 0.00224853 99.7425 0.0105551 99.7954ZM102.995 1.69975L136.241 59.2813H115.384L82.1285 1.69975H102.995ZM114.404 98.7955H93.5368L115.374 60.9611H136.241L114.404 98.7955ZM80.6687 2.53963L113.914 60.1212L92.077 97.9556L81.6486 79.8783L92.8169 60.5411C92.8269 60.5211 92.8269 60.5111 92.8369 60.4911C92.8545 60.4597 92.868 60.4261 92.8769 60.3911C92.8869 60.3511 92.8969 60.3211 92.9069 60.2812C92.9152 60.2451 92.9186 60.2081 92.9169 60.1712C92.9169 60.1512 92.9269 60.1412 92.9269 60.1212C92.9269 60.1012 92.9169 60.0912 92.9169 60.0712C92.9169 60.0312 92.9069 60.0012 92.9069 59.9612C92.9069 59.9212 92.8869 59.8912 92.8769 59.8512C92.8653 59.8172 92.852 59.7838 92.8369 59.7512C92.8269 59.7312 92.8269 59.7212 92.8169 59.7012L81.3986 39.9441C81.3786 39.9141 81.3486 39.8941 81.3286 39.8642C81.2944 39.8188 81.2577 39.7754 81.2186 39.7342C81.1777 39.7008 81.1343 39.6707 81.0887 39.6442C81.0441 39.6169 80.9973 39.5935 80.9487 39.5742C80.8941 39.5546 80.8367 39.5444 80.7787 39.5442C80.7487 39.5442 80.7087 39.5242 80.6787 39.5242H59.3219L80.6687 2.53963ZM57.8621 41.214H80.1888L90.6273 59.2813H46.9437L36.5052 41.214H57.8621ZM35.0454 42.0538L45.4739 60.1212L12.2288 117.703L1.80029 99.6354L35.0454 42.0538ZM13.6985 118.543L46.9437 60.9611H90.6273L80.1888 79.0384H57.8621C57.8421 79.0384 57.8321 79.0484 57.8121 79.0484C57.7721 79.0484 57.7421 79.0584 57.7021 79.0584L57.5821 79.0884C57.5521 79.0984 57.5121 79.1184 57.4821 79.1284C57.4521 79.1384 57.4521 79.1384 57.4321 79.1484C57.4207 79.1607 57.4072 79.1709 57.3921 79.1784C57.3598 79.1985 57.3296 79.222 57.3021 79.2484C57.273 79.2725 57.2462 79.2992 57.2222 79.3284C57.2022 79.3584 57.1722 79.3884 57.1522 79.4183C57.1422 79.4283 57.1222 79.4383 57.1222 79.4583L45.7138 99.2154C45.6993 99.2472 45.6892 99.2809 45.6839 99.3154C45.6627 99.3672 45.6459 99.4208 45.6339 99.4754C45.6252 99.5283 45.6219 99.5819 45.6239 99.6354C45.6222 99.6889 45.6256 99.7425 45.6339 99.7954C45.6445 99.8504 45.6613 99.9041 45.6839 99.9553C45.6938 99.9853 45.7039 100.025 45.7138 100.055L56.3923 118.543H13.6985ZM137.22 138.3H70.7302L81.1586 120.232H147.649L137.22 138.3ZM69.2704 137.46L47.4336 99.6354L57.8721 81.558L79.7089 119.382L69.2704 137.46ZM147.649 118.543H81.1586L59.3219 80.7182H80.1888L91.3572 100.055L91.3871 100.085C91.4071 100.121 91.4305 100.154 91.4571 100.185C91.4957 100.227 91.5394 100.264 91.5871 100.295C91.6171 100.315 91.6371 100.345 91.6671 100.365C91.6788 100.373 91.693 100.377 91.7071 100.375C91.8203 100.439 91.9474 100.473 92.077 100.475H114.894C115.027 100.473 115.157 100.439 115.274 100.375L115.364 100.315C115.449 100.259 115.523 100.188 115.584 100.105C115.594 100.085 115.624 100.075 115.634 100.055L126.312 81.558L147.649 118.543Z" fill="white"/>
</svg>
