<svg width="140" height="122" viewBox="0 0 140 122" fill="none" xmlns="http://www.w3.org/2000/svg">
<path d="M0.020425 108.188C0.0325637 108.24 0.0492805 108.29 0.070398 108.338C0.0758401 108.37 0.0859484 108.4 0.100388 108.428L7.37824 121.046L7.40823 121.076C7.42837 121.108 7.45183 121.138 7.47822 121.166C7.51821 121.206 7.55819 121.236 7.59818 121.276C7.62817 121.296 7.63817 121.326 7.66817 121.336C7.6799 121.344 7.69404 121.347 7.70813 121.346C7.81668 121.401 7.93619 121.432 8.05803 121.436H131.892C132.013 121.432 132.133 121.401 132.241 121.346C132.271 121.326 132.291 121.306 132.321 121.286C132.402 121.235 132.471 121.167 132.521 121.086C132.531 121.066 132.551 121.056 132.571 121.036L139.859 108.418C139.869 108.408 139.869 108.388 139.879 108.378C139.898 108.348 139.912 108.314 139.919 108.278C139.929 108.248 139.939 108.208 139.949 108.178C139.957 108.146 139.961 108.112 139.959 108.078C139.959 108.058 139.969 108.048 139.969 108.028C139.969 108.008 139.959 107.998 139.959 107.978C139.959 107.959 139.949 107.909 139.949 107.879C139.949 107.849 139.929 107.809 139.919 107.779C139.908 107.744 139.895 107.711 139.879 107.679C139.869 107.669 139.869 107.649 139.859 107.639L77.9474 0.389922C77.93 0.364534 77.9099 0.341074 77.8875 0.319936C77.8562 0.275342 77.8192 0.235011 77.7775 0.19996C77.6991 0.142233 77.6154 0.0920204 77.5276 0.0499893C77.4755 0.0342779 77.4219 0.0242221 77.3676 0.0199955C77.3376 0.0199955 77.3076 0 77.2677 0H62.7019C62.6819 0 62.672 0.00999728 62.652 0.00999728C62.632 0.00999728 62.582 0.0199955 62.552 0.0199955L62.442 0.0499893C62.4077 0.0606946 62.3743 0.074066 62.3421 0.0899813C62.3303 0.0979334 62.3162 0.101476 62.3021 0.0999795C62.2907 0.112329 62.2771 0.122494 62.2621 0.129973C62.2337 0.147517 62.2069 0.167595 62.1821 0.189962C62.153 0.214044 62.1262 0.240825 62.1021 0.269946C62.0821 0.29994 62.0621 0.319936 62.0421 0.34993C62.0298 0.361323 62.0196 0.374876 62.0121 0.389922L0.0903812 107.649C0.0759416 107.677 0.0658333 107.707 0.0603912 107.739C0.0392585 107.787 0.0225413 107.837 0.0104182 107.889C0.00211188 107.938 -0.00124679 107.988 0.000411342 108.038C0.0104084 108.088 0.0104279 108.138 0.020425 108.188ZM76.8178 1.56969L137.83 107.249H31.2812L37.6593 96.2108H117.346C117.469 96.2098 117.59 96.1753 117.696 96.1109C117.706 96.1009 117.726 96.1109 117.736 96.1009C117.761 96.0834 117.785 96.0633 117.806 96.0409C117.848 96.007 117.888 95.9702 117.926 95.9309C117.956 95.8933 117.983 95.8532 118.006 95.8109C118.036 95.7729 118.056 95.7284 118.066 95.6809C118.086 95.6301 118.096 95.5758 118.096 95.521C118.096 95.491 118.116 95.461 118.116 95.421C118.116 95.401 118.106 95.391 118.106 95.371C118.1 95.3202 118.09 95.27 118.076 95.221C118.063 95.1697 118.047 95.1195 118.026 95.0711C118.016 95.0611 118.016 95.0411 118.006 95.0311L64.0515 1.56969H76.8178ZM131.452 119.866H9.42763L62.7019 27.5845L69.0801 38.6223L29.2318 107.639C29.2238 107.65 29.2203 107.664 29.2218 107.679C29.2007 107.727 29.1839 107.777 29.1718 107.829C29.157 107.877 29.147 107.928 29.1418 107.978C29.1418 107.998 29.1318 108.008 29.1318 108.028C29.1318 108.048 29.1518 108.088 29.1518 108.128C29.157 108.183 29.167 108.236 29.1818 108.288C29.2018 108.338 29.2218 108.378 29.2418 108.418C29.2661 108.46 29.2928 108.5 29.3218 108.538C29.3618 108.578 29.4018 108.608 29.4417 108.648C29.4717 108.668 29.4817 108.698 29.5117 108.708C29.5217 108.718 29.5417 108.708 29.5517 108.718C29.6596 108.777 29.779 108.811 29.9016 108.818H137.81L131.452 119.866ZM101.411 94.6412H38.5591L69.9898 40.202L101.411 94.6412ZM62.7019 2.35953L115.976 94.6412H103.23L63.3917 25.6249C63.3794 25.6135 63.3692 25.6 63.3617 25.5849C63.3318 25.5449 63.2918 25.5049 63.2618 25.4649C63.2265 25.4264 63.1861 25.3927 63.1418 25.3649C63.1304 25.3526 63.1169 25.3424 63.1018 25.335C63.0735 25.3205 63.0432 25.3104 63.0118 25.305C62.9635 25.2838 62.9133 25.2671 62.8619 25.255C62.7624 25.2416 62.6615 25.2416 62.562 25.255C62.5106 25.2671 62.4604 25.2838 62.412 25.305C62.3807 25.3104 62.3504 25.3205 62.322 25.335C62.3107 25.3473 62.2971 25.3575 62.2821 25.3649C62.2421 25.3949 62.2021 25.4349 62.1621 25.4649C62.1208 25.4975 62.0867 25.5384 62.0621 25.5849C62.0498 25.5963 62.0396 25.6099 62.0322 25.6249L8.07805 119.086L1.69992 108.048L62.7019 2.35953Z" fill="white"/>
</svg>
