<svg width="139" height="143" viewBox="0 0 139 143" fill="none" xmlns="http://www.w3.org/2000/svg">
<path fill-rule="evenodd" clip-rule="evenodd" d="M137.809 49.8994C133.213 35.382 124.011 22.7578 111.597 13.9394C99.1825 5.12101 84.2325 0.588792 69.0113 1.02933C53.7901 1.46987 39.1271 6.85916 27.2436 16.3808C15.3602 25.9025 6.90376 39.0377 3.15525 53.7966C-0.593258 68.5556 0.570462 84.1342 6.47015 98.1724C12.3698 112.211 22.684 123.944 35.8503 131.594C49.0165 139.245 64.3174 142.396 79.4351 140.57C94.5528 138.744 108.664 132.041 119.63 121.476H119.66L120.23 120.906C122.98 118.143 124.523 114.402 124.518 110.503C124.514 106.605 122.963 102.867 120.207 100.11C117.45 97.3534 113.712 95.8028 109.814 95.7984C105.915 95.7941 102.174 97.3364 99.4109 100.087V100.077C93.7756 105.592 86.6547 109.345 78.9196 110.876C71.1846 112.407 63.1711 111.65 55.8596 108.698C48.5482 105.745 42.256 100.725 37.7534 94.2518C33.2507 87.7787 30.7327 80.1334 30.5076 72.2515C30.2826 64.3696 32.3602 56.593 36.4862 49.8736C40.6122 43.1541 46.6077 37.7832 53.7388 34.4183C60.8698 31.0533 68.8271 29.8402 76.6369 30.9275C84.4467 32.0147 91.7702 35.3551 97.711 40.5399L99.6809 42.5198C100.602 43.4528 101.116 44.7121 101.111 46.0228C101.107 47.3335 100.584 48.5893 99.6576 49.5161C98.7308 50.443 97.475 50.9656 96.1642 50.97C94.8535 50.9743 93.5942 50.4601 92.6612 49.5395L89.9314 46.7996L89.8314 46.8996C89.788 46.7777 89.7159 46.6679 89.6214 46.5796C84.9862 43.0695 79.4508 40.946 73.6573 40.4553C67.8639 39.9647 62.0501 41.1271 56.8907 43.8077C51.7313 46.4882 47.4379 50.577 44.5088 55.5995C41.5796 60.6219 40.135 66.3721 40.3423 72.1826C40.5497 77.9931 42.4007 83.6256 45.6805 88.4265C48.9602 93.2273 53.5341 96.9997 58.8714 99.3056C64.2088 101.611 70.0907 102.356 75.8344 101.454C81.5782 100.552 86.9483 98.0388 91.3213 94.2072C92.1447 93.2873 92.5965 92.0942 92.5891 90.8597C92.5817 89.6252 92.1156 88.4375 91.2813 87.5275C89.3114 85.3977 85.9416 85.9576 84.2716 87.3276C81.227 89.8037 77.5472 91.3735 73.6527 91.8575C69.7582 92.3415 65.806 91.7203 62.2479 90.0647C58.6897 88.4091 55.669 85.786 53.5309 82.4951C51.3928 79.2042 50.2236 75.3782 50.1568 71.4543C50.09 67.5304 51.1284 63.6668 53.1532 60.3051C55.1781 56.9433 58.1077 54.2189 61.6075 52.4432C65.1073 50.6675 69.036 49.9121 72.9447 50.2633C76.8534 50.6145 80.5846 52.0581 83.7117 54.4292L83.7416 54.4092L85.5116 56.1791C88.2745 58.9297 92.0156 60.472 95.9142 60.4676C99.8129 60.4633 103.551 58.9126 106.307 56.1559C109.064 53.3991 110.615 49.6614 110.619 45.7628C110.623 41.8642 109.081 38.1231 106.331 35.3602L106.111 35.1402C106.077 34.9829 106.001 34.8377 105.891 34.7202C98.7276 27.8658 89.701 23.2778 79.9419 21.5311C70.1828 19.7844 60.1252 20.9568 51.0294 24.9013C41.9337 28.8458 34.2043 35.387 28.81 43.7052C23.4156 52.0234 20.5963 61.7487 20.705 71.6623C20.8138 81.5759 23.8458 91.2369 29.4214 99.4348C34.9969 107.633 42.868 114.003 52.048 117.747C61.2281 121.491 71.309 122.442 81.0274 120.482C90.7459 118.521 99.6697 113.737 106.681 106.727C106.695 106.692 106.712 106.659 106.73 106.627C107.633 105.782 108.819 105.307 110.055 105.293C111.291 105.279 112.487 105.728 113.408 106.552C114.33 107.375 114.91 108.514 115.034 109.744C115.158 110.973 114.818 112.205 114.08 113.196C104.949 122.523 93.0318 128.627 80.1271 130.588C67.2224 132.548 54.0302 130.258 42.5412 124.063C31.0522 117.868 21.8896 108.105 16.4361 96.2457C10.9826 84.3868 9.53394 71.0759 12.3088 58.3216C15.0837 45.5672 21.9316 34.0614 31.8191 25.5402C41.7066 17.0189 54.0974 11.9447 67.1216 11.0831C80.1459 10.2215 93.097 13.6193 104.021 20.7638C114.945 27.9082 123.249 38.4117 127.679 50.6894C128.409 52.7193 130.119 55.6792 133.609 55.4592C134.284 55.4584 134.95 55.3013 135.554 55.0001C136.158 54.6989 136.684 54.2619 137.091 53.7233C137.498 53.1847 137.775 52.5591 137.899 51.8957C138.024 51.2322 137.993 50.549 137.809 49.8994Z" stroke="white" stroke-width="1.9999" stroke-miterlimit="10" stroke-linecap="round" stroke-linejoin="round"/>
</svg>
